<svg width="32" height="32" viewBox="0 0 32 32" fill="none" xmlns="http://www.w3.org/2000/svg">
<g clip-path="url(#clip0_69_7)">
<rect width="32" height="32" rx="16" fill="white"/>
<circle cx="16" cy="16" r="16" fill="white"/>
<path d="M23.4667 17.6667C23.4667 17.8199 23.4063 17.9669 23.2989 18.0752C23.1915 18.1836 23.0458 18.2444 22.8938 18.2444H21.7482V19.4C21.7482 19.5532 21.6879 19.7002 21.5804 19.8086C21.473 19.9169 21.3273 19.9778 21.1754 19.9778C21.0235 19.9778 20.8778 19.9169 20.7703 19.8086C20.6629 19.7002 20.6026 19.5532 20.6026 19.4V18.2444H19.4569C19.305 18.2444 19.1593 18.1836 19.0519 18.0752C18.9445 17.9669 18.8841 17.8199 18.8841 17.6667C18.8841 17.5134 18.9445 17.3665 19.0519 17.2581C19.1593 17.1498 19.305 17.0889 19.4569 17.0889H20.6026V15.9333C20.6026 15.7801 20.6629 15.6331 20.7703 15.5248C20.8778 15.4164 21.0235 15.3556 21.1754 15.3556C21.3273 15.3556 21.473 15.4164 21.5804 15.5248C21.6879 15.6331 21.7482 15.7801 21.7482 15.9333V17.0889H22.8938C23.0458 17.0889 23.1915 17.1498 23.2989 17.2581C23.4063 17.3665 23.4667 17.5134 23.4667 17.6667ZM9.719 11.8889H10.8646V13.0444C10.8646 13.1977 10.925 13.3446 11.0324 13.453C11.1398 13.5613 11.2855 13.6222 11.4375 13.6222C11.5894 13.6222 11.7351 13.5613 11.8425 13.453C11.9499 13.3446 12.0103 13.1977 12.0103 13.0444V11.8889H13.1559C13.3078 11.8889 13.4535 11.828 13.561 11.7197C13.6684 11.6113 13.7287 11.4643 13.7287 11.3111C13.7287 11.1579 13.6684 11.0109 13.561 10.9026C13.4535 10.7942 13.3078 10.7333 13.1559 10.7333H12.0103V9.57778C12.0103 9.42454 11.9499 9.27758 11.8425 9.16923C11.7351 9.06087 11.5894 9 11.4375 9C11.2855 9 11.1398 9.06087 11.0324 9.16923C10.925 9.27758 10.8646 9.42454 10.8646 9.57778V10.7333H9.719C9.56708 10.7333 9.42138 10.7942 9.31396 10.9026C9.20653 11.0109 9.14618 11.1579 9.14618 11.3111C9.14618 11.4643 9.20653 11.6113 9.31396 11.7197C9.42138 11.828 9.56708 11.8889 9.719 11.8889ZM18.8841 20.5556H18.3113V19.9778C18.3113 19.8245 18.2509 19.6776 18.1435 19.5692C18.0361 19.4609 17.8904 19.4 17.7385 19.4C17.5866 19.4 17.4409 19.4609 17.3334 19.5692C17.226 19.6776 17.1657 19.8245 17.1657 19.9778V20.5556H16.5928C16.4409 20.5556 16.2952 20.6164 16.1878 20.7248C16.0804 20.8331 16.02 20.9801 16.02 21.1333C16.02 21.2866 16.0804 21.4335 16.1878 21.5419C16.2952 21.6502 16.4409 21.7111 16.5928 21.7111H17.1657V22.2889C17.1657 22.4421 17.226 22.5891 17.3334 22.6974C17.4409 22.8058 17.5866 22.8667 17.7385 22.8667C17.8904 22.8667 18.0361 22.8058 18.1435 22.6974C18.2509 22.5891 18.3113 22.4421 18.3113 22.2889V21.7111H18.8841C19.036 21.7111 19.1817 21.6502 19.2892 21.5419C19.3966 21.4335 19.4569 21.2866 19.4569 21.1333C19.4569 20.9801 19.3966 20.8331 19.2892 20.7248C19.1817 20.6164 19.036 20.5556 18.8841 20.5556ZM21.4124 12.4667L11.4375 22.5279C11.2226 22.7445 10.9313 22.8661 10.6276 22.8661C10.3239 22.8661 10.0326 22.7445 9.81781 22.5279L8.33564 21.0344C8.22923 20.9271 8.14482 20.7997 8.08723 20.6595C8.02964 20.5193 8 20.369 8 20.2172C8 20.0654 8.02964 19.9151 8.08723 19.7749C8.14482 19.6347 8.22923 19.5073 8.33564 19.4L18.3113 9.33872C18.4177 9.23139 18.544 9.14625 18.683 9.08816C18.822 9.03007 18.971 9.00017 19.1215 9.00017C19.2719 9.00017 19.4209 9.03007 19.56 9.08816C19.699 9.14625 19.8253 9.23139 19.9317 9.33872L21.4124 10.8323C21.5188 10.9396 21.6032 11.067 21.6608 11.2072C21.7184 11.3474 21.748 11.4977 21.748 11.6495C21.748 11.8012 21.7184 11.9515 21.6608 12.0917C21.6032 12.232 21.5188 12.3594 21.4124 12.4667ZM20.6026 11.6498L19.1211 10.1556L16.8298 12.4667L18.3113 13.9609L20.6026 11.6498Z" fill="#2563EB"/>
</g>
<defs>
<clipPath id="clip0_69_7">
<rect width="32" height="32" rx="16" fill="white"/>
</clipPath>
</defs>
</svg>
